<svg width="18" height="18" viewBox="0 0 18 18" fill="none" xmlns="http://www.w3.org/2000/svg">
<rect x="0.5" y="0.5" width="17" height="17" rx="8.5" fill="white" stroke="#333333"/>
<path d="M12.2189 6.38912L8.36119 10.0417L6.59646 8.23592C6.53988 8.17799 6.47243 8.13176 6.39798 8.09989C6.32352 8.06802 6.24352 8.05113 6.16254 8.05018C6.08156 8.04922 6.00118 8.06423 5.926 8.09434C5.85082 8.12445 5.7823 8.16907 5.72436 8.22566C5.66643 8.28225 5.62021 8.3497 5.58833 8.42415C5.55646 8.49861 5.53957 8.57861 5.53862 8.65959C5.53766 8.74057 5.55267 8.82095 5.58278 8.89613C5.61289 8.97131 5.65752 9.03983 5.7141 9.09776L7.90975 11.3344C7.96371 11.3949 8.03026 11.4427 8.10471 11.4746C8.17916 11.5065 8.2597 11.5217 8.34067 11.5191C8.49876 11.5148 8.6507 11.4569 8.77159 11.355L13.0603 7.292C13.1787 7.1824 13.2494 7.03067 13.257 6.86948C13.2647 6.70829 13.2088 6.55053 13.1013 6.43016C12.9882 6.31039 12.833 6.23918 12.6684 6.23152C12.5038 6.22387 12.3427 6.28037 12.2189 6.38912Z" fill="#333333"/>
</svg>
