<?xml version="1.0" encoding="utf-8"?><svg viewBox="0 0 18 18" xmlns="http://www.w3.org/2000/svg" xmlns:xlink="http://www.w3.org/1999/xlink"><style>:root>svg{display:none}:root>svg:target{display:block}</style><svg fill="none" viewBox="0 0 18 18" id="icon-agree" xmlns="http://www.w3.org/2000/svg"><rect x=".5" y=".5" width="17" height="17" rx="8.5" fill="#fff" stroke="#333"/><path d="M12.219 6.39L8.36 10.041 6.596 8.236a.617.617 0 10-.882.862l2.196 2.236a.553.553 0 00.43.185.698.698 0 00.432-.164l4.288-4.063a.615.615 0 00.041-.862.636.636 0 00-.882-.04z" fill="#333"/></svg><svg fill="none" viewBox="0 0 9 7" id="icon-checkbox" xmlns="http://www.w3.org/2000/svg"><path d="M7.524.729L3.57 4.576 1.761 2.674a.632.632 0 00-.444-.196.617.617 0 00-.45.185.65.65 0 00-.19.457.665.665 0 00.18.462l2.25 2.355a.569.569 0 00.442.195.704.704 0 00.442-.173l4.396-4.28a.66.66 0 00.042-.908.641.641 0 00-.904-.043V.73z" fill="#333"/></svg></svg>